<svg xmlns="http://www.w3.org/2000/svg" viewBox="0 0 800 560" role="img" aria-labelledby="title desc">
  <title id="title">Retrato ilustrado de Aristóteles</title>
  <desc id="desc">Ilustración decorativa inspirada en un busto clásico de Aristóteles.</desc>
  <defs>
    <linearGradient id="bg" x1="0" y1="0" x2="1" y2="1">
      <stop offset="0%" stop-color="#1f2d3d"/>
      <stop offset="100%" stop-color="#7f583c"/>
    </linearGradient>
    <linearGradient id="stone" x1="0" y1="0" x2="0" y2="1">
      <stop offset="0%" stop-color="#f0e7d8"/>
      <stop offset="100%" stop-color="#cdb79b"/>
    </linearGradient>
  </defs>
  <rect width="800" height="560" fill="url(#bg)"/>
  <g opacity=".18" fill="#fff6ea">
    <rect x="76" y="112" width="34" height="300" rx="14"/>
    <rect x="128" y="88" width="34" height="324" rx="14"/>
    <rect x="180" y="130" width="34" height="282" rx="14"/>
  </g>
  <g transform="translate(250 64)">
    <path d="M155 34c70 0 122 52 122 120 0 36-14 68-42 95 25 11 50 36 66 78l38 99H-1l36-101c12-35 31-62 62-79-29-28-44-60-44-92 0-68 52-120 122-120z" fill="url(#stone)"/>
    <path d="M82 112c8-46 39-80 84-95 44-15 104 7 134 48-26-2-46 2-69 15-21-12-50-15-75-6-28 10-46 20-74 38z" fill="#e2cfb0"/>
    <circle cx="129" cy="160" r="13" fill="#6a523d" opacity=".16"/>
    <circle cx="192" cy="160" r="13" fill="#6a523d" opacity=".16"/>
    <path d="M126 212c16 15 52 15 68 0" stroke="#9f7e5a" stroke-width="8" fill="none" stroke-linecap="round"/>
    <rect x="112" y="314" width="98" height="74" rx="16" fill="#1d3248" opacity=".9"/>
  </g>
</svg>
