<svg xmlns="http://www.w3.org/2000/svg" viewBox="0 0 800 560" role="img" aria-labelledby="title desc">
  <title id="title">Escultura clásica y columnas</title>
  <desc id="desc">Ilustración decorativa inspirada en una escultura clásica para la portada de una web de filosofía.</desc>
  <defs>
    <linearGradient id="bg" x1="0" y1="0" x2="1" y2="1">
      <stop offset="0%" stop-color="#1d3248"/>
      <stop offset="55%" stop-color="#2f506d"/>
      <stop offset="100%" stop-color="#b4683d"/>
    </linearGradient>
    <linearGradient id="stone" x1="0" y1="0" x2="0" y2="1">
      <stop offset="0%" stop-color="#f1e5d2"/>
      <stop offset="100%" stop-color="#d4bea0"/>
    </linearGradient>
  </defs>
  <rect width="800" height="560" fill="url(#bg)"/>
  <circle cx="648" cy="118" r="58" fill="#d8b46d" opacity=".75"/>
  <g opacity=".24" fill="#fff7eb">
    <rect x="66" y="122" width="42" height="320" rx="18"/>
    <rect x="130" y="94" width="42" height="348" rx="18"/>
    <rect x="194" y="132" width="42" height="310" rx="18"/>
  </g>
  <g transform="translate(360 80)">
    <ellipse cx="90" cy="420" rx="150" ry="26" fill="#10202f" opacity=".4"/>
    <path d="M106 72c34 0 62 28 62 62 0 28-18 49-38 59 13 10 28 32 34 67l28 160H20l27-160c7-38 25-59 40-68-20-10-43-31-43-58 0-34 28-62 62-62z" fill="url(#stone)"/>
    <path d="M78 60c18-16 42-21 69-15 18 4 36 15 43 31-12-8-28-9-43-7-9-11-18-17-37-9-7 3-12 7-16 14-15-4-28-4-39 3 2-8 10-12 23-17z" fill="#d8c4a8"/>
    <circle cx="106" cy="132" r="14" fill="#1d2430" opacity=".14"/>
    <circle cx="151" cy="132" r="14" fill="#1d2430" opacity=".14"/>
    <path d="M96 172c17 18 46 18 64 0" stroke="#9d7e5c" stroke-width="8" fill="none" stroke-linecap="round"/>
    <path d="M22 420h172" stroke="#f9ead3" stroke-width="12" opacity=".5" stroke-linecap="round"/>
  </g>
</svg>
