<svg xmlns="http://www.w3.org/2000/svg" viewBox="0 0 800 560" role="img" aria-labelledby="title desc">
  <title id="title">Biblioteca filosófica</title>
  <desc id="desc">Ilustración de libros y una lámpara para representar la biblioteca de estudio.</desc>
  <defs>
    <linearGradient id="bg" x1="0" y1="0" x2="1" y2="1">
      <stop offset="0%" stop-color="#f5ead9"/>
      <stop offset="100%" stop-color="#e5d2b1"/>
    </linearGradient>
  </defs>
  <rect width="800" height="560" fill="url(#bg)"/>
  <rect x="0" y="420" width="800" height="140" fill="#24384f"/>
  <rect x="120" y="210" width="88" height="210" rx="10" fill="#1d3248"/>
  <rect x="216" y="170" width="100" height="250" rx="10" fill="#b4683d"/>
  <rect x="326" y="190" width="72" height="230" rx="10" fill="#8c9db0"/>
  <rect x="406" y="160" width="112" height="260" rx="10" fill="#d8b46d"/>
  <rect x="530" y="202" width="84" height="218" rx="10" fill="#7f583c"/>
  <path d="M620 186h80l32 60H588l32-60z" fill="#1d3248"/>
  <rect x="648" y="246" width="24" height="104" fill="#1d3248"/>
  <ellipse cx="660" cy="354" rx="70" ry="18" fill="#10202f" opacity=".18"/>
  <g stroke="#fff7eb" stroke-width="3" opacity=".58">
    <line x1="140" y1="240" x2="188" y2="240"/>
    <line x1="234" y1="216" x2="296" y2="216"/>
    <line x1="428" y1="212" x2="496" y2="212"/>
    <line x1="548" y1="238" x2="594" y2="238"/>
  </g>
</svg>
