<svg xmlns="http://www.w3.org/2000/svg" viewBox="0 0 420 300" role="img" aria-labelledby="title desc">
  <title id="title">Ilustración filosófica de John Locke</title>
  <desc id="desc">Libro abierto, ventana y luz cálida en una biblioteca clásica.</desc>
  <defs>
    <linearGradient id="bg" x1="0" x2="1" y1="0" y2="1">
      <stop offset="0" stop-color="#fbf3e5"/>
      <stop offset="1" stop-color="#e5d0ad"/>
    </linearGradient>
  </defs>
  <rect width="420" height="300" rx="26" fill="url(#bg)"/>
  <rect x="50" y="52" width="132" height="172" rx="18" fill="#1d3248" opacity=".14"/>
  <path d="M86 78h60M86 110h60M86 142h60M86 174h60" stroke="#8b4f2c" stroke-width="7" stroke-linecap="round"/>
  <path d="M210 202c35-24 71-24 107 0v-96c-36-22-72-22-107 0z" fill="#fff8ef" stroke="#8b4f2c" stroke-width="8"/>
  <path d="M210 202c-35-24-71-24-107 0v-96c36-22 72-22 107 0z" fill="#fff8ef" stroke="#8b4f2c" stroke-width="8"/>
  <path d="M210 104v101" stroke="#8b4f2c" stroke-width="7"/>
  <circle cx="315" cy="86" r="34" fill="#d8b46d" opacity=".78"/>
  <path d="M280 86h70M315 51v70" stroke="#fff8ef" stroke-width="8" stroke-linecap="round" opacity=".8"/>
</svg>
