<svg xmlns="http://www.w3.org/2000/svg" viewBox="0 0 800 560" role="img" aria-labelledby="title desc">
  <title id="title">Retrato ilustrado de Sócrates</title>
  <desc id="desc">Ilustración decorativa inspirada en un busto clásico de Sócrates.</desc>
  <defs>
    <linearGradient id="bg" x1="0" y1="0" x2="1" y2="1">
      <stop offset="0%" stop-color="#24384f"/>
      <stop offset="100%" stop-color="#b4683d"/>
    </linearGradient>
    <linearGradient id="stone" x1="0" y1="0" x2="0" y2="1">
      <stop offset="0%" stop-color="#f0e4cf"/>
      <stop offset="100%" stop-color="#cfb28c"/>
    </linearGradient>
  </defs>
  <rect width="800" height="560" fill="url(#bg)"/>
  <g transform="translate(215 64)">
    <ellipse cx="180" cy="430" rx="178" ry="26" fill="#0f1a26" opacity=".35"/>
    <path d="M180 36c72 0 126 53 126 124 0 41-18 77-54 103 24 14 42 40 51 77l28 110H29l29-115c8-33 25-59 52-74-34-27-55-64-55-101 0-71 54-124 125-124z" fill="url(#stone)"/>
    <path d="M98 80c16-34 49-54 87-54 51 0 95 30 113 72-20-11-47-11-69-2-20-24-64-27-92-16-14 5-29 16-39 29z" fill="#ddc9ab"/>
    <circle cx="150" cy="160" r="15" fill="#5a4736" opacity=".18"/>
    <circle cx="220" cy="160" r="15" fill="#5a4736" opacity=".18"/>
    <path d="M144 220c20 22 62 22 82 0" stroke="#9b7857" stroke-width="9" fill="none" stroke-linecap="round"/>
    <path d="M120 264c40 18 102 18 142 0" stroke="#c3aa85" stroke-width="20" fill="none" stroke-linecap="round"/>
  </g>
</svg>
